<svg id="object" xmlns="http://www.w3.org/2000/svg" viewBox="0 0 486.12 364.62"><defs><style>.cls-1{fill-rule:evenodd;}</style></defs><path class="cls-1" d="M408,152s-42.26-6-24,68c0,0,13.93,20-23.05,22.5,0,0-37.94-22.5-60.51,20,0,0-33.13,2.5-34.57,29.5a118.73,118.73,0,0,1-18.25,11c-9.61,4.5-19.69,30-17.29,40s2.88,24-1,34.5-4.32,29,1.44,34,2.88,8,8.65,11.5,24.49-6.5,18.72-10l-5.76-3.5s9.61-13,5.76-18.5-15.84-11.5-11-18.5,27.85-20,25.93-43.5c0,0,37.14-18.67,49-26s38.1,89.33,27.85,104c-10.24,15.33-19.2,77.5-21.13,84s-4.32,25.5-4.32,25.5H396S408.5,495,408.5,484Z" transform="translate(-163.6 -151.88)"/><path class="cls-1" d="M404,152s42.26-6,24,68c0,0-13.93,20,23,22.5,0,0,37.94-22.5,60.51,20,0,0,33.13,2.5,34.57,29.5a118.73,118.73,0,0,0,18.25,11c9.61,4.5,19.69,30,17.29,40s-2.88,24,1,34.5,4.32,29-1.44,34-2.88,8-8.64,11.5-24.49-6.5-18.73-10l5.76-3.5s-9.6-13-5.76-18.5,15.84-11.5,11-18.5S537,352.5,538.9,329c0,0-37.14-18.67-49-26s-38.1,89.33-27.85,104c10.24,15.33,19.21,77.5,21.13,84s4.32,25.5,4.32,25.5H416S403.48,495,403.48,484Z" transform="translate(-163.6 -151.88)"/><path d="M169.07,420.49V393.1H163.6c0,.81,0,27.1,0,27.39Z" transform="translate(-163.6 -151.88)"/><path d="M207.75,451.6V362H189.52V451.6Z" transform="translate(-163.6 -151.88)"/><path d="M186.61,437.84V375.75H172v62.09Z" transform="translate(-163.6 -151.88)"/><path d="M644.26,393.1c0,.33,0,27.07,0,27.39h5.48c0-.81,0-27.09,0-27.38Z" transform="translate(-163.6 -151.88)"/><path d="M605.58,362V451.6h18.23V362Z" transform="translate(-163.6 -151.88)"/><path d="M626.72,375.75v62.09h14.63V375.75Z" transform="translate(-163.6 -151.88)"/><rect x="100.02" y="246.61" width="76.62" height="16.62" rx="3"/><rect x="307.18" y="246.61" width="76.62" height="16.62" rx="3"/><rect x="426.51" y="246.61" width="16.96" height="16.62" rx="3"/><rect x="41.51" y="246.61" width="16.96" height="16.62" rx="3"/></svg>